<svg xmlns="http://www.w3.org/2000/svg" width="137.947" height="44.443" viewBox="0 0 137.947 44.443"><defs><style>.a{fill:#e5173f;}</style></defs><g transform="translate(0.036 0.143)"><path class="a" d="M64.6,19.9c0-3.3-1.8-4.9-5.1-5a14.723,14.723,0,0,0-3.6.4,5.7,5.7,0,0,0,0,2.6,10.206,10.206,0,0,1,3-.3c1.7,0,2.5.7,2.5,2.1v.1a8.084,8.084,0,0,0-1.5-.1c-2.8,0-5.2,1-5.2,3.7,0,3.1,2.2,4.1,5.3,4.1a17.657,17.657,0,0,0,4.6-.7Zm-3.1,4.9a6.6,6.6,0,0,1-1.4.1c-1.5,0-2.3-.5-2.3-1.5,0-1.1.8-1.5,2.3-1.5.5,0,1.1.1,1.4.1Z"/><path class="a" d="M46.5,35.4a12.573,12.573,0,0,0-3.3.5v8c.2,0,.5.1.7.1a1.7,1.7,0,0,0,.7-.1V36.8a11.019,11.019,0,0,1,1.8-.2c1.6,0,2.5.9,2.5,2.7v4.6c.2,0,.5.1.7.1a1.7,1.7,0,0,0,.7-.1V39.2c0-2.5-1.3-3.8-3.8-3.8Z"/><path class="a" d="M54.3,17.8a8.173,8.173,0,0,0,.1-2.7,2.769,2.769,0,0,0-.9-.1,3.9,3.9,0,0,0-3.3,1.7,9.363,9.363,0,0,0-.4-1.6,3.21,3.21,0,0,0-1.4-.1,5.7,5.7,0,0,0-1.3.1V27.2a4.329,4.329,0,0,0,1.6.1,8.083,8.083,0,0,0,1.6-.1V21.3c0-2.3,1.2-3.6,2.9-3.6a4.1,4.1,0,0,0,1.1.1Z"/><path class="a" d="M54.7,35.4Z"/><path class="a" d="M54.7,35.4a8.329,8.329,0,0,0-2.2.3,4.331,4.331,0,0,1-.1.5,1.268,1.268,0,0,0,.1.6,7.612,7.612,0,0,1,2.1-.3c1.4,0,2.1.6,2.1,2.1v.3a7.569,7.569,0,0,0-1.5-.1c-2.1,0-3.4.9-3.4,2.5,0,1.8,1.4,2.7,3.3,2.7a10.323,10.323,0,0,0,3-.4V38.8C58.1,36.4,56.8,35.4,54.7,35.4Zm2.1,7.3a8.753,8.753,0,0,1-1.6.2c-1.3,0-2-.6-2-1.6,0-1.1.8-1.5,2.2-1.5a6.15,6.15,0,0,1,1.4.1Z"/><path class="a" d="M16.8,17.8l-2.4,1.4v8.2H17a.43.43,0,0,0,.4-.4h0V18.1a.43.43,0,0,0-.4-.4.31.31,0,0,0-.2.1Z"/><path class="a" d="M39.7,15a7.418,7.418,0,0,0-2.5.5v-6A8.916,8.916,0,0,0,34.5,11a1.425,1.425,0,0,0-.6,1.2V26.8a13.082,13.082,0,0,0,4.4.7c4.3,0,6.8-2.6,6.8-6.4C45,17.3,43.3,15,39.7,15Zm-1.3,9.8h0a4.869,4.869,0,0,1-1.2-.1V18.1a4.333,4.333,0,0,1,1.9-.4c1.6,0,2.5,1.1,2.5,3.3C41.6,23.3,40.6,24.8,38.4,24.8Z"/><path class="a" d="M107.7,27.5a7.323,7.323,0,0,0,3.6-.8,7.242,7.242,0,0,1-1.2-2.3,5.222,5.222,0,0,1-2.1.4c-1.6,0-2.7-1.3-2.7-3.6,0-2.2.9-3.6,2.8-3.6a5.222,5.222,0,0,1,2.1.4,5.667,5.667,0,0,1,1.2-2.3,6.711,6.711,0,0,0-3.7-.8c-3.6,0-5.7,2.6-5.7,6.3-.1,3.9,2,6.3,5.7,6.3Z"/><path class="a" d="M11.8,21v6.1a.265.265,0,0,0,.3.3h1.6V19.5l-1.6.9A.864.864,0,0,0,11.8,21Z"/><path class="a" d="M13.6,5.9a30.76,30.76,0,0,0-5.3.4,10.146,10.146,0,0,1,7.9-3.9,10.549,10.549,0,0,1,6.4,2.2c.3.2.5.3.7,0a.483.483,0,0,0,0-.7A11.156,11.156,0,0,0,7.5,2.5,12.93,12.93,0,0,0,4.2,7.3,18.031,18.031,0,0,0,.4,8.9c-.4.1-.5.4-.4.6s.4.4.6.2c1-.3,2-.5,3-.7a9.852,9.852,0,0,0-.2,1.7,11.137,11.137,0,0,0,5.1,9.5.6.6,0,0,0,.8,0,.428.428,0,0,0-.1-.7,9.534,9.534,0,0,1-3.1-7.1A10.132,10.132,0,0,1,7,8.5c1-.1,2.2-.2,3.4-.2,8.1,0,14.9,2.7,14.9,6.2,0,1.8-2.2,3.6-4.9,4.7-.6.3-.7.5-.6.8a.43.43,0,0,0,.7.2c4.7-1.5,8.2-4.1,8.2-7.1C28.7,9.1,22,5.9,13.6,5.9Z"/><path class="a" d="M39.9,35.5v8.4c.2,0,.5.1.7.1a1.7,1.7,0,0,0,.7-.1V35.5c-.2,0-.5-.1-.7-.1S40.1,35.5,39.9,35.5Z"/><path class="a" d="M37.3,32.8a4.1,4.1,0,0,1,1.1.1c0-.2.1-.4.1-.6a.749.749,0,0,0-.1-.5,5.067,5.067,0,0,0-1.3-.2,3.012,3.012,0,0,0-3.2,2.8v9.4c.2,0,.5.1.7.1a1.7,1.7,0,0,0,.7-.1V36.6h3c0-.2.1-.4.1-.6a.749.749,0,0,0-.1-.5h-3V35c.1-1.5.8-2.2,2-2.2Z"/><path class="a" d="M40.6,32.6a2.2,2.2,0,0,0-.8.1v1.4c.2,0,.5.1.7.1a2.2,2.2,0,0,0,.8-.1V32.7a.878.878,0,0,0-.7-.1Z"/><path class="a" d="M112.7,35.4a12.574,12.574,0,0,0-3.3.5v8c.2,0,.5.1.7.1a1.7,1.7,0,0,0,.7-.1V36.8a11.019,11.019,0,0,1,1.8-.2c1.6,0,2.5.9,2.5,2.7v4.6c.2,0,.5.1.7.1a1.7,1.7,0,0,0,.7-.1V39.2c0-2.5-1.3-3.8-3.8-3.8Z"/><path class="a" d="M97.8,20.1l-1.3-.6c-.8-.3-1.2-.6-1.2-1.1,0-.8.7-.9,1.6-.9a10.588,10.588,0,0,1,3.1.5,5.283,5.283,0,0,0,0-2.5,7.413,7.413,0,0,0-3.6-.6c-2.5,0-4.5,1.4-4.5,3.5,0,1.9.8,2.8,3,3.7l1,.4c1,.4,1.3.6,1.3,1.3,0,1-1,1.1-1.8,1.1a10.966,10.966,0,0,1-3.6-.7,5.7,5.7,0,0,0,0,2.6,9.68,9.68,0,0,0,4.1.8c2.5,0,4.5-1.3,4.5-3.7C100.5,21.8,99.6,20.9,97.8,20.1Z"/><path class="a" d="M107.9,39.1c0-2.3-1.3-3.7-3.3-3.7-2.2,0-3.6,1.7-3.6,4.3s1.5,4.3,4,4.3a6.375,6.375,0,0,0,2.4-.4,2.054,2.054,0,0,0,0-1.1,6.2,6.2,0,0,1-2.3.4c-1.7,0-2.6-1.1-2.7-2.9h5.5A2.719,2.719,0,0,1,107.9,39.1Zm-5.6-.2a2.422,2.422,0,0,1,2.2-2.5h0c1.3,0,2,1,2,2.5Z"/><path class="a" d="M104.6,35.4Z"/><path class="a" d="M122.7,36.6c0-.2.1-.4.1-.6a1.268,1.268,0,0,0-.1-.6h-2.8V33a2.589,2.589,0,0,0-1.1.7.713.713,0,0,0-.3.6v6.3c0,2.3,1.3,3.3,2.9,3.3a2.953,2.953,0,0,0,1.3-.2,4.331,4.331,0,0,1,.1-.5.749.749,0,0,0-.1-.5,4.869,4.869,0,0,1-1.2.1c-1,0-1.7-.7-1.7-2.1V36.6Z"/><path class="a" d="M136.1,39.2l-.8-.4c-.8-.4-1.3-.6-1.3-1.2,0-.8.8-1,1.6-1a4.477,4.477,0,0,1,2,.4c0-.2.1-.4.1-.6a.9.9,0,0,0-.1-.5,5.381,5.381,0,0,0-2.2-.4c-1.5,0-2.8.9-2.8,2.2,0,1.1.5,1.7,2,2.4l.6.3c1,.4,1.3.8,1.3,1.5,0,.9-.9,1.2-1.7,1.2a6.874,6.874,0,0,1-2.4-.5c0,.2-.1.4-.1.6a1.268,1.268,0,0,0,.1.6,5.753,5.753,0,0,0,2.6.5c1.6,0,2.9-.9,2.9-2.3a2.531,2.531,0,0,0-1.8-2.8Z"/><path class="a" d="M117.2,14.9c-3.7,0-5.8,2.5-5.8,6.3,0,3.9,2.2,6.3,5.8,6.3,3.7,0,5.8-2.5,5.8-6.3S120.9,14.9,117.2,14.9Zm0,10c-1.8,0-2.4-1.5-2.4-3.6s.6-3.7,2.4-3.7c1.9,0,2.4,1.5,2.4,3.7S119,24.9,117.2,24.9Z"/><path class="a" d="M127.6,35.4c-2.3,0-3.7,1.6-3.7,4.3s1.4,4.3,3.7,4.3,3.7-1.6,3.7-4.3C131.3,36.9,129.9,35.4,127.6,35.4Zm0,7.5h0c-1.5,0-2.2-1.1-2.2-3.2s.8-3.2,2.3-3.2,2.3,1.1,2.3,3.2C129.8,41.8,129.1,42.9,127.6,42.9Z"/><path class="a" d="M76.8,32.6a2.2,2.2,0,0,0-.8.1v1.4c.2,0,.5.1.7.1a2.2,2.2,0,0,0,.8-.1V32.7a.821.821,0,0,0-.7-.1Z"/><path class="a" d="M72.7,42.8c-1.8,0-2.6-1.2-2.6-3.2s.8-3.1,2.6-3.1a3.922,3.922,0,0,1,1.8.4c0-.2.1-.4.1-.6a.749.749,0,0,0-.1-.5,4.477,4.477,0,0,0-2-.4c-2.3,0-3.8,1.7-3.8,4.3,0,2.7,1.3,4.3,3.8,4.3a5.222,5.222,0,0,0,2.1-.4c0-.2.1-.4.1-.6a.749.749,0,0,0-.1-.5,5.822,5.822,0,0,1-1.9.3Z"/><path class="a" d="M95.7,35.4a5.547,5.547,0,0,0-2.8.7,3.891,3.891,0,0,0-2.3-.7,11.27,11.27,0,0,0-3.2.5v8c.2,0,.5.1.7.1a1.7,1.7,0,0,0,.7-.1V36.8a4.678,4.678,0,0,1,1.7-.2c1.6,0,2.3.8,2.3,2.7V44c.2,0,.5.1.7.1a1.7,1.7,0,0,0,.7-.1V39.3a4.558,4.558,0,0,0-.5-2.3,4.477,4.477,0,0,1,2-.4c1.6,0,2.4.8,2.4,2.7v4.6c.2,0,.5.1.7.1a1.7,1.7,0,0,0,.7-.1V39.2a3.566,3.566,0,0,0-3.8-3.8Z"/><path class="a" d="M76.1,35.5v8.4c.2,0,.5.1.7.1a1.7,1.7,0,0,0,.7-.1V35.5c-.2,0-.5-.1-.7-.1s-.5.1-.7.1Z"/><path class="a" d="M74.8,11a1.425,1.425,0,0,0-.6,1.2v2.9a9.852,9.852,0,0,0-1.7-.2c-3.6,0-6.1,2.4-6.1,6.4s2.4,6.2,6.2,6.2a16.136,16.136,0,0,0,4.9-.7h0V9.5A11.74,11.74,0,0,0,74.8,11Zm-.6,13.6a6.753,6.753,0,0,1-1.4.2c-2.2,0-3-1.4-3-3.5h0c0-2.3.8-3.7,3-3.7a5.9,5.9,0,0,1,1.4.2Z"/><path class="a" d="M89.4,24.3Z"/><path class="a" d="M90.2,20.5c0-3.6-2-5.6-5.1-5.6-3.6,0-5.7,2.4-5.7,6.4s2.3,6.2,6.3,6.2a9.04,9.04,0,0,0,3.7-.7,5.7,5.7,0,0,0,0-2.6,18.575,18.575,0,0,1-3.4.6c-1.8,0-3.1-.7-3.4-2.6h7.5A9.7,9.7,0,0,0,90.2,20.5Zm-7.6-.7A2.414,2.414,0,0,1,85,17.5h0c1.5,0,2.1,1,2.1,2.3Z"/><path class="a" d="M82,35.4h0a8.329,8.329,0,0,0-2.2.3,4.331,4.331,0,0,1-.1.5,1.268,1.268,0,0,0,.1.6,7.612,7.612,0,0,1,2.1-.3c1.4,0,2.1.6,2.1,2.1v.3a7.569,7.569,0,0,0-1.5-.1c-2.1,0-3.4.9-3.4,2.5,0,1.8,1.4,2.7,3.3,2.7a10.323,10.323,0,0,0,3-.4V38.8C85.4,36.4,84.1,35.4,82,35.4Zm2.1,7.3a8.753,8.753,0,0,1-1.6.2c-1.3,0-2-.6-2-1.6,0-1.1.8-1.5,2.2-1.5a6.15,6.15,0,0,1,1.4.1Z"/><path class="a" d="M63.3,35.4a12.573,12.573,0,0,0-3.3.5v8c.2,0,.5.1.7.1a1.7,1.7,0,0,0,.7-.1V36.8a11.019,11.019,0,0,1,1.8-.2c1.6,0,2.5.9,2.5,2.7v4.6c.2,0,.5.1.7.1a1.7,1.7,0,0,0,.7-.1V39.2c0-2.5-1.3-3.8-3.8-3.8Z"/></g></svg>