<?xml version="1.0" encoding="utf-8"?>
<!-- Generator: Adobe Illustrator 22.0.0, SVG Export Plug-In . SVG Version: 6.00 Build 0)  -->
<svg version="1.1" id="Camada_1" xmlns="http://www.w3.org/2000/svg" xmlns:xlink="http://www.w3.org/1999/xlink" x="0px" y="0px"
	 viewBox="0 0 595.3 246.6" style="enable-background:new 0 0 595.3 246.6;" xml:space="preserve">
<style type="text/css">
	.st0{fill:none;}
	.st1{fill:#3D65BB;}
</style>
<rect y="0" class="st0" width="595.3" height="246.6"/>
<g>
	<g>
		<path class="st1" d="M259.7,151l-18.5-23.4l-5,5.5V151H227V96h9.2v26.7L258.3,96h11.6l-22.4,24.7l24.2,30.4L259.7,151L259.7,151z"
			/>
		<path class="st1" d="M309,111.9c3.2,2.2,4.7,5.7,4.7,10.5v19.8c0,3.7-1.6,6.3-4.9,7.8s-8,2.2-14.1,2.2c-4.9,0-8.9-1-12.1-3.1
			c-3.2-2-4.8-5.4-4.8-10.2c0-4.5,1.3-7.9,3.9-10.1c2.6-2.3,6.3-3.4,11.1-3.4c4.9,0,9.1,1,12.4,3v-4c0-5.6-3.4-8.4-10.2-8.4
			c-2.4,0-4.8,0.4-7.3,1.1c-2.4,0.7-4.4,1.8-6,3.1v-8.1c1.5-1,3.8-1.8,6.7-2.5c2.9-0.7,6-1,9.1-1C302,108.7,305.8,109.7,309,111.9z
			 M302.9,144.7c1.4-0.5,2.1-1.5,2.1-3v-8c-2.8-1.2-5.9-1.8-9.2-1.8c-3.1,0-5.5,0.5-7.1,1.6s-2.4,2.8-2.4,5c0,2.3,0.9,4,2.8,5.2
			s4,1.7,6.6,1.7C299.1,145.4,301.5,145.2,302.9,144.7z"/>
		<path class="st1" d="M358.5,113.9c3.7,3.5,5.5,9.2,5.5,17.2c0,6.5-1.7,11.6-5,15.4c-3.4,3.8-8.1,5.7-14.1,5.7
			c-1.5,0-3.2-0.2-5.1-0.6c-1.9-0.4-3.7-1-5.2-1.7v17.7H326v-50c0-3.1,1.8-5.4,5.3-6.8s7.8-2.1,12.7-2.1
			C350,108.6,354.8,110.3,358.5,113.9z M352.1,141.2c2-2.4,3-5.8,3-10.4c0-4.7-0.8-8.3-2.5-10.9s-4.7-3.9-9-3.9
			c-2.7,0-5,0.3-6.6,0.9c-1.7,0.6-2.5,1.4-2.5,2.5v22.9c2.7,1.6,5.6,2.4,8.7,2.4C347.2,144.8,350.1,143.6,352.1,141.2z"/>
		<path class="st1" d="M419,96h9.3v55h-9.1v-42l-18.4,25.4l-17.6-25.2V151h-8.8V96h9.5l17.3,25.6L419,96z"/>
		<path class="st1" d="M445.8,148c-3.2-2.8-4.8-7-4.8-12.4v-26h8.7v24.7c0,3.5,0.8,6.1,2.3,7.8c1.6,1.7,4,2.5,7.3,2.5
			s5.7-0.8,7.3-2.5c1.6-1.7,2.3-4.3,2.3-7.8v-24.7h8.3v26c0,5.4-1.6,9.6-4.7,12.4s-7.6,4.2-13.3,4.2
			C453.5,152.2,449,150.8,445.8,148z"/>
		<path class="st1" d="M494.4,144.9c-4.5-4.7-6.7-11.9-6.7-21.4c0-9.5,2.2-16.6,6.7-21.3s10.9-7.1,19.3-7.1c6.5,0,12.7,1.3,18.4,3.8
			v8.7c-3.4-1.6-6.4-2.8-9.1-3.7c-2.7-0.9-5.4-1.3-8.2-1.3c-6.1,0-10.6,1.6-13.6,5c-2.9,3.3-4.4,8.6-4.4,15.8
			c0,7.3,1.5,12.5,4.4,15.8s7.4,4.9,13.3,4.9c4,0,7.5-0.5,10.5-1.6v-13.1h-11.6v-7.8H534v25.2c-6.4,3.4-13.2,5-20.4,5
			C505.3,152,498.9,149.6,494.4,144.9z"/>
	</g>
	<g>
		<path class="st1" d="M61.1,70.3v105.9c0,2.2,0.9,4.3,2.4,5.8L180.9,64.6c-1.5-1.5-3.5-2.4-5.8-2.4H69.2
			C64.7,62.2,61.1,65.9,61.1,70.3z"/>
		<path d="M63.5,182c1.5,1.5,3.5,2.4,5.8,2.4h105.9c2.2,0,4.3-0.9,5.8-2.4l-58.7-58.7L63.5,182z"/>
	</g>
</g>
</svg>
